<svg xmlns="http://www.w3.org/2000/svg" xmlns:xlink="http://www.w3.org/1999/xlink" viewBox="0 0 68 68" version="1.1" x="0px" y="0px"><title>meal, food, eat, restaurant, fork, knife</title><desc>Created with Sketch.</desc><g stroke="none" stroke-width="1" fill="none" fill-rule="evenodd"><g transform="translate(-536.000000, -57.000000)" fill="#f97316" fill-rule="nonzero"><path d="M537.419309,100.752264 C536.495975,97.6630944 536,94.3894678 536,91 C536,72.2223185 551.222319,57 570,57 C582.77345,57 593.901708,64.0439013 599.712322,74.459251 L584.843582,89.3279911 C581.337496,87.1099671 576.642341,87.5292322 573.585786,90.5857864 L567.585786,96.5857864 C566.804738,97.366835 566.804738,98.633165 567.585786,99.4142136 C568.366835,100.195262 569.633165,100.195262 570.414214,99.4142136 L576.414214,93.4142136 C577.892382,91.9360452 580.056064,91.5611939 581.881913,92.2896597 L572.585786,101.585786 C571.804738,102.366835 571.804738,103.633165 572.585786,104.414214 C573.366835,105.195262 574.633165,105.195262 575.414214,104.414214 L584.71034,95.1180868 C585.438806,96.9439363 585.063955,99.107618 583.585786,100.585786 L577.585786,106.585786 C576.804738,107.366835 576.804738,108.633165 577.585786,109.414214 C578.366835,110.195262 579.633165,110.195262 580.414214,109.414214 L586.414214,103.414214 C589.470768,100.357659 589.890033,95.6625037 587.672009,92.1564182 L601.542907,78.2855199 C603.127614,82.2132124 604,86.5047278 604,91 C604,109.777681 588.777681,125 570,125 C556.165238,125 544.260414,116.736952 538.951549,104.876878 L555,88.8284271 L560.585786,94.4142136 C561.366835,95.1952621 562.633165,95.1952621 563.414214,94.4142136 L573.414214,84.4142136 C578.061255,79.7671717 578.061255,72.2328283 573.414214,67.5857864 C572.633165,66.8047379 571.366835,66.8047379 570.585786,67.5857864 L537.419309,100.752264 L537.419309,100.752264 Z M562,90.1715729 L557.828427,86 L571.819419,72.0090081 C573.593347,75.0354151 573.182136,78.9894364 570.585786,81.5857864 L562,90.1715729 Z"/></g></g></svg>